<?xml version="1.0" encoding="UTF-8"?>
<svg width="32px" height="22px" viewBox="0 0 32 22" version="1.1" xmlns="http://www.w3.org/2000/svg" xmlns:xlink="http://www.w3.org/1999/xlink">
    <!-- Generator: Sketch 51.2 (57519) - http://www.bohemiancoding.com/sketch -->
    <title>Group 2</title>
    <desc>Created with Sketch.</desc>
    <defs></defs>
    <g id="Page-1" stroke="none" stroke-width="1" fill="none" fill-rule="evenodd" stroke-linecap="round" stroke-linejoin="round">
        <g id="Group-2" transform="translate(1.000000, 0.000000)" stroke="#303C42">
            <polyline id="Stroke-32" points="10.5 12.5 13.6 12.5 14.915 16.416"></polyline>
            <polyline id="Stroke-33" points="22.5 12.5 25.6 12.5 26.915 16.416"></polyline>
            <polyline id="Stroke-34" points="16.5 2.5 19.6 2.5 20.915 6.416"></polyline>
            <path d="M23.4023,10.5 C23.4623,10.343 23.5003,10.176 23.5003,10 L23.5003,10 C23.5003,8.565 23.2533,7.14 22.7673,5.78 L21.3713,1.864 C21.0803,1.049 20.2693,0.5 19.3563,0.5 L10.6433,0.5 C9.7303,0.5 8.9193,1.049 8.6293,1.864 L7.1203,6.095 C6.7093,7.246 6.5003,8.453 6.5003,9.667 L6.5003,10 C6.5003,10.176 6.5383,10.343 6.5973,10.5" id="Stroke-35"></path>
            <path d="M15.9062,21.5 L27.9062,21.5 C28.7862,21.5 29.5002,20.829 29.5002,20 L29.5002,20 C29.5002,18.565 29.2532,17.14 28.7672,15.78 L27.3712,11.864 C27.0802,11.049 26.2692,10.5 25.3562,10.5 L16.6432,10.5 C15.9892,10.5 15.3952,10.79 15.0002,11.25" id="Stroke-37"></path>
            <path d="M2.6289,11.8638 C2.9199,11.0488 3.7309,10.4998 4.6439,10.4998 L13.3569,10.4998 C14.2699,10.4998 15.0809,11.0488 15.3709,11.8638 L16.7679,15.7798 C17.2529,17.1398 17.4999,18.5648 17.4999,19.9998 L17.4999,19.9998 C17.4999,20.8288 16.7869,21.4998 15.9059,21.4998 L2.0939,21.4998 C1.2129,21.4998 0.4999,20.8288 0.4999,19.9998 L0.4999,19.6678 C0.4999,18.4528 0.7099,17.2458 1.1199,16.0948 L2.6289,11.8638 Z" id="Stroke-39"></path>
        </g>
    </g>
</svg>