<?xml version="1.0" encoding="UTF-8"?>
<svg width="458px" height="446px" viewBox="0 0 458 446" version="1.1" xmlns="http://www.w3.org/2000/svg" xmlns:xlink="http://www.w3.org/1999/xlink">
    <!-- Generator: sketchtool 51.1 (57501) - http://www.bohemiancoding.com/sketch -->
    <title>logo</title>
    <desc>Created with sketchtool.</desc>
    <defs></defs>
    <g id="Page-1" stroke="none" stroke-width="1" fill="none" fill-rule="evenodd">
        <g id="logo">
            <g id="drag" transform="translate(20.000000, 20.000000)">
                <g id="Group-2" transform="translate(46.000000, 38.000000)">
                    <g id="Group" transform="translate(139.000000, 32.000000)" fill="#000000" fill-rule="nonzero">
                        <path d="M12.0999619,47.5489258 C25.5416963,58.2802389 38.9834307,63.6458955 52.4251651,63.6458955 C65.8668995,63.6458955 79.308634,58.2802389 92.7503684,47.5489258 C81.9969808,65.245163 76.6202871,78.6593044 76.6202871,87.79135 C76.6202871,96.9233956 81.9969808,110.337537 92.7503684,128.033774 C79.308634,117.302461 65.8668995,111.936805 52.4251651,111.936805 C38.9834307,111.936805 25.5416963,117.302461 12.0999619,128.033774 C22.8533494,114.619633 28.2300432,101.205491 28.2300432,87.79135 C28.2300432,74.3772086 22.8533494,60.9630672 12.0999619,47.5489258 Z" id="Rectangle-Copy-5" transform="translate(52.425165, 87.791350) rotate(20.000000) translate(-52.425165, -87.791350) "></path>
                        <path d="M28.7831205,3.83420114 C32.1435542,6.51702942 35.5039878,7.85844357 38.8644214,7.85844357 C42.224855,7.85844357 45.5852886,6.51702942 48.9457222,3.83420114 C46.2573753,8.25826045 44.9132018,11.6117958 44.9132018,13.8948072 C44.9132018,16.1778186 46.2573753,19.531354 48.9457222,23.9554133 C45.5852886,21.272585 42.224855,19.9311708 38.8644214,19.9311708 C35.5039878,19.9311708 32.1435542,21.272585 28.7831205,23.9554133 C31.4714674,20.6018779 32.8156409,17.2483426 32.8156409,13.8948072 C32.8156409,10.5412718 31.4714674,7.1877365 28.7831205,3.83420114 Z" id="Rectangle-Copy-4" transform="translate(38.864421, 13.894807) rotate(20.000000) translate(-38.864421, -13.894807) "></path>
                        <path d="M107.587912,57.3257077 C114.728833,63.0267178 121.869754,65.8772229 129.010676,65.8772229 C136.151597,65.8772229 143.292519,63.0267178 150.43344,57.3257077 C144.720703,66.7268338 141.864334,73.8530964 141.864334,78.7044956 C141.864334,83.5558948 144.720703,90.6821575 150.43344,100.083283 C143.292519,94.3822734 136.151597,91.5317683 129.010676,91.5317683 C121.869754,91.5317683 114.728833,94.3822734 107.587912,100.083283 C113.300649,92.9570209 116.157017,85.8307582 116.157017,78.7044956 C116.157017,71.578233 113.300649,64.4519704 107.587912,57.3257077 Z" id="Rectangle-Copy" transform="translate(129.010676, 78.704496) rotate(20.000000) translate(-129.010676, -78.704496) "></path>
                        <path d="M107.232908,119.85022 C113.953775,125.215877 120.674642,127.898705 127.395509,127.898705 C134.116377,127.898705 140.837244,125.215877 147.558111,119.85022 C142.181417,128.698339 139.49307,135.40541 139.49307,139.971433 C139.49307,144.537455 142.181417,151.244526 147.558111,160.092645 C140.837244,154.726988 134.116377,152.04416 127.395509,152.04416 C120.674642,152.04416 113.953775,154.726988 107.232908,160.092645 C112.609602,153.385574 115.297948,146.678503 115.297948,139.971433 C115.297948,133.264362 112.609602,126.557291 107.232908,119.85022 Z" id="Rectangle-Copy-3" transform="translate(127.395509, 139.971433) rotate(20.000000) translate(-127.395509, -139.971433) "></path>
                        <path d="M80.2580432,14.9576326 C84.8786394,18.6465215 89.4992356,20.490966 94.1198318,20.490966 C98.740428,20.490966 103.361024,18.6465215 107.98162,14.9576326 C104.285143,21.0407142 102.436905,25.6518253 102.436905,28.790966 C102.436905,31.9301066 104.285143,36.5412177 107.98162,42.6242993 C103.361024,38.9354104 98.740428,37.090966 94.1198318,37.090966 C89.4992356,37.090966 84.8786394,38.9354104 80.2580432,42.6242993 C83.9545202,38.0131882 85.8027587,33.4020771 85.8027587,28.790966 C85.8027587,24.1798549 83.9545202,19.5687437 80.2580432,14.9576326 Z" id="Rectangle-Copy-2" transform="translate(94.119832, 28.790966) rotate(20.000000) translate(-94.119832, -28.790966) "></path>
                    </g>
                    <circle id="Oval" stroke="#000000" stroke-width="20" fill-rule="nonzero" cx="163.5" cy="163.5" r="163.5"></circle>
                </g>
            </g>
        </g>
    </g>
</svg>