<?xml version="1.0" encoding="UTF-8"?>
<svg width="280px" height="280px" viewBox="0 0 280 280" version="1.1" xmlns="http://www.w3.org/2000/svg" xmlns:xlink="http://www.w3.org/1999/xlink">
    <!-- Generator: Sketch 51.2 (57519) - http://www.bohemiancoding.com/sketch -->
    <title>Artboard</title>
    <desc>Created with Sketch.</desc>
    <defs>
        <linearGradient x1="50%" y1="0%" x2="114.921475%" y2="50%" id="linearGradient-1">
            <stop stop-color="#D935CE" offset="0%"></stop>
            <stop stop-color="#ED4242" offset="100%"></stop>
        </linearGradient>
        <linearGradient x1="112.825062%" y1="51.121202%" x2="17.2733897%" y2="-1.38606627%" id="linearGradient-2">
            <stop stop-color="#EF0D0D" offset="0%"></stop>
            <stop stop-color="#D027CD" offset="100%"></stop>
        </linearGradient>
    </defs>
    <g id="Artboard" stroke="none" stroke-width="1" fill="none" fill-rule="evenodd">
        <g id="Group-2" transform="translate(10.000000, 10.000000)" fill-rule="nonzero">
            <g id="Group" transform="translate(111.000000, 26.000000)" fill="url(#linearGradient-1)">
                <path d="M9.01480845,37.0148085 C19.6814751,45.5481418 30.3481418,49.8148085 41.0148085,49.8148085 C51.6814751,49.8148085 62.3481418,45.5481418 73.0148085,37.0148085 C64.4814751,51.0865152 60.2148085,61.7531818 60.2148085,69.0148085 C60.2148085,76.2764351 64.4814751,86.9431017 73.0148085,101.014808 C62.3481418,92.4814751 51.6814751,88.2148085 41.0148085,88.2148085 C30.3481418,88.2148085 19.6814751,92.4814751 9.01480845,101.014808 C17.5481418,90.3481418 21.8148085,79.6814751 21.8148085,69.0148085 C21.8148085,58.3481418 17.5481418,47.6814751 9.01480845,37.0148085 Z" id="Rectangle-Copy-5" transform="translate(41.014808, 69.014808) rotate(20.000000) translate(-41.014808, -69.014808) "></path>
                <path d="M22.2537021,2.25370211 C24.9203688,4.38703545 27.5870354,5.45370211 30.2537021,5.45370211 C32.9203688,5.45370211 35.5870354,4.38703545 38.2537021,2.25370211 C36.1203688,5.77162879 35.0537021,8.43829546 35.0537021,10.2537021 C35.0537021,12.0691088 36.1203688,14.7357754 38.2537021,18.2537021 C35.5870354,16.1203688 32.9203688,15.0537021 30.2537021,15.0537021 C27.5870354,15.0537021 24.9203688,16.1203688 22.2537021,18.2537021 C24.3870354,15.5870354 25.4537021,12.9203688 25.4537021,10.2537021 C25.4537021,7.58703545 24.3870354,4.92036878 22.2537021,2.25370211 Z" id="Rectangle-Copy-4" transform="translate(30.253702, 10.253702) rotate(20.000000) translate(-30.253702, -10.253702) "></path>
                <path d="M84.789117,44.789117 C90.4557837,49.3224503 96.1224503,51.589117 101.789117,51.589117 C107.455784,51.589117 113.12245,49.3224503 118.789117,44.789117 C114.255784,52.2647112 111.989117,57.9313778 111.989117,61.789117 C111.989117,65.6468561 114.255784,71.3135228 118.789117,78.789117 C113.12245,74.2557837 107.455784,71.989117 101.789117,71.989117 C96.1224503,71.989117 90.4557837,74.2557837 84.789117,78.789117 C89.3224503,73.1224503 91.589117,67.4557837 91.589117,61.789117 C91.589117,56.1224503 89.3224503,50.4557837 84.789117,44.789117 Z" id="Rectangle-Copy" transform="translate(101.789117, 61.789117) rotate(20.000000) translate(-101.789117, -61.789117) "></path>
                <path d="M84.5074042,94.5074042 C89.8407376,98.7740709 95.1740709,100.907404 100.507404,100.907404 C105.840738,100.907404 111.174071,98.7740709 116.507404,94.5074042 C112.240738,101.543258 110.107404,106.876591 110.107404,110.507404 C110.107404,114.138218 112.240738,119.471551 116.507404,126.507404 C111.174071,122.240738 105.840738,120.107404 100.507404,120.107404 C95.1740709,120.107404 89.8407376,122.240738 84.5074042,126.507404 C88.7740709,121.174071 90.9074042,115.840738 90.9074042,110.507404 C90.9074042,105.174071 88.7740709,99.8407376 84.5074042,94.5074042 Z" id="Rectangle-Copy-3" transform="translate(100.507404, 110.507404) rotate(20.000000) translate(-100.507404, -110.507404) "></path>
                <path d="M63.101544,11.0988404 C66.7682106,14.0321737 70.4348773,15.4988404 74.101544,15.4988404 C77.7682106,15.4988404 81.4348773,14.0321737 85.101544,11.0988404 C82.1682106,15.9359896 80.701544,19.6026563 80.701544,22.0988404 C80.701544,24.5950246 82.1682106,28.2616912 85.101544,33.0988404 C81.4348773,30.1655071 77.7682106,28.6988404 74.101544,28.6988404 C70.4348773,28.6988404 66.7682106,30.1655071 63.101544,33.0988404 C66.0348773,29.4321737 67.501544,25.7655071 67.501544,22.0988404 C67.501544,18.4321737 66.0348773,14.7655071 63.101544,11.0988404 Z" id="Rectangle-Copy-2" transform="translate(74.101544, 22.098840) rotate(20.000000) translate(-74.101544, -22.098840) "></path>
            </g>
            <circle id="Oval" stroke="url(#linearGradient-2)" stroke-width="20" cx="130" cy="130" r="130"></circle>
        </g>
    </g>
</svg>